<svg width="83" height="83" viewBox="0 0 83 83" fill="none" xmlns="http://www.w3.org/2000/svg">
<path d="M45.3809 7.66777C43.8855 6.47942 41.7103 6.72824 40.522 8.22352C39.3333 9.7188 39.5823 11.8943 41.0777 13.0827L52.9014 22.4794H15.5626C13.6526 22.4794 12.1043 24.0277 12.1043 25.9377C12.1043 27.8477 13.6526 29.3961 15.5626 29.3961H34.4857L3.03777 54.3537C1.54168 55.5413 1.29138 57.7166 2.47872 59.2126C3.66603 60.7087 5.84139 60.9591 7.33747 59.7715L26.0916 44.8879C25.9899 45.7621 25.9376 46.6509 25.9376 47.5522C25.9376 61.758 38.7032 72.6251 53.6042 72.6251C68.5051 72.6251 81.2708 61.758 81.2708 47.5522C81.2708 39.7823 77.3847 32.9337 71.4654 28.3981L45.3809 7.66777ZM39.9942 33.8545C43.6127 31.0975 48.3592 29.3961 53.6042 29.3961C58.8612 29.3961 63.6171 31.1051 67.2386 33.8729C71.6781 37.2661 74.3542 42.1855 74.3542 47.5522C74.3542 57.2217 65.4431 65.7084 53.6042 65.7084C41.7656 65.7084 32.8543 57.2217 32.8543 47.5522C32.8543 42.4345 35.2878 37.7236 39.3634 34.355L39.9942 33.8545ZM50.0687 48.7346C49.1125 47.8337 48.6909 46.7792 48.7504 45.6854C48.8617 43.7318 50.9084 41.5001 53.9327 41.5001C56.9518 41.5001 58.9988 43.7266 59.114 45.6812C59.1741 46.8225 58.7401 47.8714 57.8071 48.7494C56.819 49.6794 55.3956 50.2704 53.9327 50.2704C52.5027 50.2704 51.0744 49.6825 50.0687 48.7346ZM53.9327 34.5834C47.8944 34.5834 42.1941 39.0609 41.8444 45.3015C41.4734 52.0314 47.4667 57.1871 53.9327 57.1871C60.4205 57.1871 66.39 52.0798 66.0199 45.2973C65.6665 39.0599 59.9696 34.5834 53.9327 34.5834Z" fill="white"/>
</svg>
