<svg width="90" height="91" viewBox="0 0 90 91" fill="none" xmlns="http://www.w3.org/2000/svg">
<g clip-path="url(#clip0_19_142)">
<mask id="mask0_19_142" style="mask-type:luminance" maskUnits="userSpaceOnUse" x="0" y="0" width="90" height="91">
<path d="M90 0H0V91H90V0Z" fill="white"/>
</mask>
<g mask="url(#mask0_19_142)">
<path fill-rule="evenodd" clip-rule="evenodd" d="M31.5559 0C22.3814 0 15 7.78342 15 17.3187C15 23.1169 17.7287 28.2656 21.9268 31.4094C17.7287 34.5531 15 39.7018 15 45.5C15 51.2982 17.7287 56.4469 21.9268 59.5906C17.7287 62.7343 15 67.883 15 73.6812C15 83.2165 22.3814 91 31.5559 91C40.7303 91 48.1117 83.2165 48.1117 73.6812V59.0328C50.9385 61.3992 54.5351 62.8188 58.4449 62.8188C67.6193 62.8188 75.0008 55.0353 75.0008 45.5C75.0008 39.7018 72.2722 34.5531 68.0741 31.4094C72.2722 28.2656 75.0008 23.1169 75.0008 17.3187C75.0008 7.78342 67.6193 0 58.4449 0H31.5559ZM21.2229 17.3187C21.2229 11.2866 25.877 6.45607 31.5559 6.45607H41.889V28.1813H31.5559C25.877 28.1813 21.2229 23.3508 21.2229 17.3187ZM58.4449 28.1813H48.1117V6.45607H58.4449C64.1239 6.45607 68.778 11.2866 68.778 17.3187C68.778 23.3508 64.1239 28.1813 58.4449 28.1813ZM21.2229 45.5C21.2229 39.4678 25.877 34.6374 31.5559 34.6374H41.889V56.3627H31.5559C25.877 56.3627 21.2229 51.5322 21.2229 45.5ZM48.1117 45.5C48.1117 39.4678 52.7659 34.6374 58.4449 34.6374C64.1239 34.6374 68.778 39.4678 68.778 45.5C68.778 51.5322 64.1239 56.3627 58.4449 56.3627C52.7659 56.3627 48.1117 51.5322 48.1117 45.5ZM21.2229 73.6812C21.2229 67.6494 25.877 62.8188 31.5559 62.8188H41.889V73.6812C41.889 79.7133 37.2348 84.5439 31.5559 84.5439C25.877 84.5439 21.2229 79.7133 21.2229 73.6812Z" fill="white"/>
</g>
</g>
<defs>
<clipPath id="clip0_19_142">
<rect width="90" height="91" fill="white"/>
</clipPath>
</defs>
</svg>
