<svg width="25" height="25" viewBox="0 0 25 25" fill="none" xmlns="http://www.w3.org/2000/svg">
<path d="M13.6478 3.19507C14.6995 5.67651 9.87726 7.19702 9.42902 9.26538C9.01886 11.1638 12.2855 13.3904 12.2884 13.3904C11.7903 12.6052 11.4271 11.9431 10.929 10.7185C10.0853 8.65015 16.0706 6.78394 13.6478 3.19507ZM16.8353 6.64038C16.8353 6.64038 12.6194 6.90698 12.4056 9.66382C12.3089 10.8914 13.5189 11.5359 13.554 12.4294C13.5833 13.1589 12.8275 13.7654 12.8275 13.7654C12.8275 13.7654 14.1839 13.5193 14.6087 12.406C15.0775 11.1697 13.6946 10.3259 13.8353 9.33569C13.97 8.3894 16.8353 6.64038 16.8353 6.64038ZM17.8665 12.9919C17.4241 12.9714 16.9261 13.1355 16.4837 13.4607C17.3568 13.2673 18.1009 13.8152 18.1009 14.4451C18.1009 15.8572 16.0853 17.1873 16.0853 17.1873C16.0853 17.1873 19.2025 16.8386 19.2025 14.5154C19.2025 13.5574 18.6019 13.0271 17.8665 12.9919ZM9.59308 13.0154C8.50616 13.0535 6.33527 13.2322 6.33527 14.0701C6.33527 15.2361 11.3919 15.3269 15.0071 14.6091C15.0071 14.6091 15.9915 13.9236 16.2493 13.6716C13.8792 14.1638 8.46808 14.24 8.46808 13.8123C8.46808 13.4197 10.2025 13.0154 10.2025 13.0154C10.2025 13.0154 9.95636 13.0037 9.59308 13.0154ZM9.26495 15.1716C8.67023 15.1716 7.78839 15.6345 7.78839 16.0857C7.78839 16.9939 12.265 17.6912 15.5696 16.3669L14.4212 15.6638C12.18 16.3962 8.04034 16.1531 9.26495 15.1716ZM9.82745 17.2107C9.01593 17.2107 8.49152 17.7234 8.49152 18.1013C8.49152 19.2644 13.3401 19.3787 15.265 18.1951L14.0462 17.3982C12.6107 18.0164 8.99835 18.1072 9.82745 17.2107ZM7.1087 18.2654C5.78448 18.239 4.92902 18.8396 4.92902 19.3435C4.92902 22.0242 18.4993 21.8953 18.4993 19.156C18.4993 18.7019 17.9632 18.4851 17.7728 18.3826C18.8802 21.0017 6.68683 20.7966 6.68683 19.2498C6.68683 18.8982 7.58917 18.5466 8.4212 18.7107L7.71808 18.3123C7.51007 18.28 7.29913 18.2683 7.1087 18.2654ZM19.929 20.0701C17.8665 22.0652 12.6458 22.78 7.38995 21.5466C12.6458 23.7439 19.9026 22.5222 19.929 20.0701Z" fill="white"/>
</svg>
