<svg width="40" height="40" viewBox="0 0 40 40" fill="none" xmlns="http://www.w3.org/2000/svg">
<path fill-rule="evenodd" clip-rule="evenodd" d="M1.66669 4.72971C1.66669 3.91734 1.9894 3.13824 2.56384 2.56381C3.13827 1.98937 3.91737 1.66666 4.72974 1.66666H35.2685C35.6709 1.66666 36.0692 1.74589 36.4407 1.89982C36.8124 2.05376 37.15 2.27937 37.4345 2.56381C37.7189 2.84824 37.9445 3.18591 38.0985 3.55752C38.2524 3.92916 38.3317 4.32746 38.3317 4.72971V35.2685C38.3317 35.6708 38.2524 36.0692 38.0985 36.4407C37.9445 36.8123 37.7189 37.15 37.4345 37.4345C37.15 37.7188 36.8124 37.9445 36.4407 38.0985C36.0692 38.2523 35.6709 38.3317 35.2685 38.3317H4.72974C3.91737 38.3317 3.13827 38.0088 2.56384 37.4345C1.9894 36.86 1.66669 36.081 1.66669 35.2685V4.72971ZM16.1799 15.6452H21.145V18.14C21.8607 16.7053 23.6947 15.416 26.4499 15.416C31.7312 15.416 32.9847 18.2713 32.9847 23.5105V33.2138H27.6377V24.7037C27.6377 21.7202 26.922 20.0373 25.1017 20.0373C22.5772 20.0373 21.5269 21.8515 21.5269 24.7037V33.2138H16.1799V15.6452ZM7.01365 32.9847H12.3606V15.416H7.01365V32.9847ZM13.1245 9.68711C13.1245 10.1385 13.0356 10.5855 12.8628 11.0025C12.6901 11.4196 12.4369 11.7985 12.1177 12.1177C11.7985 12.4369 11.4196 12.6901 11.0026 12.8628C10.5855 13.0355 10.1385 13.1245 9.68714 13.1245C9.23575 13.1245 8.78877 13.0355 8.37174 12.8628C7.95469 12.6901 7.57577 12.4369 7.25657 12.1177C6.93739 11.7985 6.6842 11.4196 6.51145 11.0025C6.33872 10.5855 6.2498 10.1385 6.2498 9.68711C6.2498 8.77547 6.61195 7.90117 7.25657 7.25654C7.9012 6.61192 8.7755 6.24977 9.68714 6.24977C10.5988 6.24977 11.4731 6.61192 12.1177 7.25654C12.7623 7.90117 13.1245 8.77547 13.1245 9.68711Z" fill="white"/>
</svg>
