<svg width="79" height="79" viewBox="0 0 79 79" fill="none" xmlns="http://www.w3.org/2000/svg">
<g clip-path="url(#clip0_13_15)">
<path fill-rule="evenodd" clip-rule="evenodd" d="M39.5 0.93219L38.9312 1.91969L33.4225 11.4487H37.525V45.4028L8.11883 62.3799L6.0672 58.8265L0 69.3485H1.13839L12.1463 69.3548L10.0938 65.8014L39.5 48.8243L68.9062 65.8014L66.8538 69.3548L79 69.3485L78.4312 68.361L72.9328 58.8265L70.8812 62.3807L41.475 45.4036V11.4479H45.5775L39.5 0.93219Z" fill="white"/>
<path fill-rule="evenodd" clip-rule="evenodd" d="M38.7559 22.4763L15.6515 37.6277C15.119 38.0124 14.976 38.4501 14.9666 38.8482V61.4896C14.9666 61.9873 15.2257 62.4502 15.6515 62.7101L38.7559 77.8608C39.3128 78.1649 39.8793 78.1136 40.2553 77.8529L63.3486 62.7101C63.5578 62.5825 63.7307 62.4031 63.8506 62.1894C63.9706 61.9757 64.0336 61.7347 64.0335 61.4896V38.8482C64.0288 38.2447 63.7729 37.9263 63.3265 37.6127L40.2442 22.4763C39.6944 22.1626 39.263 22.3119 38.7559 22.4763ZM39.5 25.3677L59.6569 38.7234L39.4874 52.3161L19.1417 38.8474L39.5 25.3677ZM17.8224 41.3912L38.0717 54.8023V74.098L17.824 60.687L17.8224 41.3912ZM61.1777 41.3912V60.6862L40.9284 74.0972V54.8007L61.1777 41.3912Z" fill="white"/>
</g>
<defs>
<clipPath id="clip0_13_15">
<rect width="79" height="79" fill="white"/>
</clipPath>
</defs>
</svg>
