<svg width="25" height="25" viewBox="0 0 25 25" fill="none" xmlns="http://www.w3.org/2000/svg">
<g clip-path="url(#clip0_175_17)">
<mask id="mask0_175_17" style="mask-type:luminance" maskUnits="userSpaceOnUse" x="0" y="0" width="25" height="25">
<path d="M24.429 0.945068H0.429016V24.9451H24.429V0.945068Z" fill="white"/>
</mask>
<g mask="url(#mask0_175_17)">
<path d="M11.6431 0.951528C11.5915 0.95622 11.4272 0.972642 11.2794 0.984372C7.87066 1.2917 4.6777 3.131 2.65541 5.95798C1.52931 7.52983 0.809075 9.31282 0.536934 11.2014C0.440746 11.8607 0.429016 12.0554 0.429016 12.9492C0.429016 13.8431 0.440746 14.0378 0.536934 14.697C1.18913 19.2038 4.39618 22.9903 8.74574 24.3932C9.52462 24.6442 10.3457 24.8155 11.2794 24.9187C11.6431 24.9586 13.2149 24.9586 13.5786 24.9187C15.1903 24.7404 16.5557 24.3416 17.9023 23.6542C18.1088 23.5486 18.1486 23.5205 18.1205 23.497C18.1017 23.4829 17.222 22.3029 16.1662 20.8765L14.2472 18.2841L11.8425 14.7252C10.5193 12.7686 9.43078 11.1686 9.4214 11.1686C9.41201 11.1662 9.40263 12.7475 9.39793 14.6782C9.3909 18.0589 9.38855 18.195 9.34632 18.2747C9.28533 18.3897 9.2384 18.4366 9.13987 18.4882C9.0648 18.5258 8.99911 18.5328 8.64486 18.5328H8.23899L8.13107 18.4648C8.06069 18.4202 8.00908 18.3615 7.97389 18.2935L7.92462 18.1879L7.92931 13.4841L7.93635 8.77792L8.00908 8.68643C8.04662 8.63716 8.12638 8.57382 8.18269 8.54332C8.27887 8.4964 8.31641 8.49171 8.72227 8.49171C9.20087 8.49171 9.28063 8.51047 9.40497 8.64654C9.44016 8.68408 10.7422 10.6454 12.3 13.0079C13.8577 15.3703 15.9879 18.5961 17.0343 20.1797L18.9346 23.0583L19.0308 22.995C19.8824 22.4413 20.7833 21.653 21.4964 20.8319C23.0143 19.0888 23.9926 16.9633 24.3211 14.697C24.4173 14.0378 24.429 13.8431 24.429 12.9492C24.429 12.0554 24.4173 11.8607 24.3211 11.2014C23.6689 6.69464 20.4618 2.90813 16.1123 1.50519C15.3451 1.25651 14.5287 1.08525 13.6138 0.982026C13.3885 0.958566 11.8378 0.932759 11.6431 0.951528ZM16.5557 8.21018C16.6683 8.26649 16.7598 8.3744 16.7926 8.48701C16.8114 8.54801 16.8161 9.85241 16.8114 12.792L16.8044 17.0102L16.0607 15.87L15.3146 14.7299V11.6636C15.3146 9.68115 15.324 8.56678 15.3381 8.51282C15.3756 8.38144 15.4577 8.27822 15.5703 8.21722C15.6665 8.16795 15.7017 8.16326 16.0701 8.16326C16.4173 8.16326 16.4783 8.16795 16.5557 8.21018Z" fill="white"/>
</g>
</g>
<defs>
<clipPath id="clip0_175_17">
<rect width="24" height="24" fill="white" transform="translate(0.429016 0.945068)"/>
</clipPath>
</defs>
</svg>
