<svg width="100" height="99" viewBox="0 0 100 99" fill="none" xmlns="http://www.w3.org/2000/svg">
<path fill-rule="evenodd" clip-rule="evenodd" d="M37.8976 63.9375H32.3059V33.7632C34.3226 33.4002 37.1184 33.1279 40.9226 33.1279C45.0475 33.1279 48.0725 33.9901 50.0433 35.6236C51.8767 37.1209 53.0683 39.5258 53.0683 42.3844C53.0683 45.2884 52.1517 47.6933 50.41 49.3268C48.1642 51.5501 44.635 52.5938 40.6476 52.5938C39.5934 52.5938 38.6309 52.5484 37.8976 52.4123V63.9375ZM41.1517 37.3932C39.5934 37.3932 38.4934 37.5293 37.8976 37.6654V48.0109C38.5851 48.1924 39.5017 48.2378 40.6476 48.2378C44.8642 48.2378 47.4308 46.1959 47.4308 42.6113C47.4308 39.2082 45.0475 37.3932 41.1517 37.3932Z" fill="white"/>
<path d="M60.2692 64.4367C57.565 64.4367 55.1358 63.7561 53.4858 62.8486L54.5858 58.8102C55.8692 59.5816 58.2983 60.3983 60.315 60.3983C62.79 60.3983 63.89 59.4001 63.89 57.9481C63.89 56.4507 62.9733 55.6793 60.2233 54.7264C55.8692 53.2291 54.0358 50.8696 54.0817 48.2832C54.0817 44.3809 57.3358 41.3408 62.515 41.3408C64.99 41.3408 67.1442 41.9761 68.4275 42.6567L67.3275 46.6043C66.365 46.0598 64.5775 45.3338 62.6067 45.3338C60.59 45.3338 59.49 46.2867 59.49 47.6479C59.49 49.0546 60.5442 49.7352 63.3858 50.7334C67.4192 52.1854 69.2983 54.2273 69.3442 57.4943C69.3442 61.4873 66.1817 64.4367 60.2692 64.4367Z" fill="white"/>
<path fill-rule="evenodd" clip-rule="evenodd" d="M71.9096 11.6862C57.4654 10.088 42.5346 10.088 28.0907 11.6862C19.7071 12.6138 12.9391 19.152 11.9535 27.4949C10.2262 42.115 10.2262 56.8849 11.9535 71.5052C12.9391 79.848 19.7071 86.3861 28.0907 87.3138C42.5346 88.9118 57.4654 88.9118 71.9096 87.3138C80.2929 86.3861 87.0608 79.848 88.0467 71.5052C89.7738 56.8849 89.7738 42.115 88.0467 27.4949C87.0608 19.152 80.2929 12.6138 71.9096 11.6862ZM28.7849 17.8354C42.7675 16.2882 57.2325 16.2882 71.215 17.8354C76.7575 18.4486 81.1967 22.7783 81.8392 28.2137C83.51 42.3563 83.51 56.6436 81.8392 70.7862C81.1967 76.2217 76.7575 80.5513 71.215 81.1647C57.2325 82.7116 42.7675 82.7116 28.7849 81.1647C23.2428 80.5513 18.8033 76.2217 18.1611 70.7862C16.4903 56.6436 16.4903 42.3563 18.1611 28.2137C18.8033 22.7783 23.2428 18.4486 28.7849 17.8354Z" fill="white"/>
</svg>
