<svg width="25" height="25" viewBox="0 0 25 25" fill="none" xmlns="http://www.w3.org/2000/svg">
<g clip-path="url(#clip0_175_23)">
<mask id="mask0_175_23" style="mask-type:luminance" maskUnits="userSpaceOnUse" x="0" y="0" width="25" height="25">
<path d="M24.429 0.945068H0.429016V24.9451H24.429V0.945068Z" fill="white"/>
</mask>
<g mask="url(#mask0_175_23)">
<path d="M24.429 12.6341C24.429 11.0442 22.438 9.53741 19.3854 8.60304C20.0898 5.49175 19.7767 3.01641 18.3972 2.22391C18.0792 2.03802 17.7074 1.94996 17.3014 1.94996V3.04087C17.5264 3.04087 17.7074 3.0849 17.8591 3.16806C18.5244 3.54964 18.813 5.00255 18.588 6.87128C18.5342 7.33113 18.4461 7.81543 18.3385 8.30952C17.3797 8.07471 16.3328 7.8937 15.2321 7.7763C14.5717 6.87128 13.8868 6.04943 13.197 5.33031C14.7918 3.84805 16.2888 3.03598 17.3063 3.03598V1.94507C15.961 1.94507 14.1999 2.9039 12.4192 4.56717C10.6385 2.91368 8.87745 1.96464 7.53216 1.96464V3.05555C8.5448 3.05555 10.0466 3.86272 11.6414 5.3352C10.9565 6.05432 10.2717 6.87128 9.62103 7.7763C8.51545 7.8937 7.46856 8.07471 6.50974 8.31441C6.39722 7.82522 6.31406 7.3507 6.25535 6.89574C6.02543 5.02701 6.30917 3.5741 6.96958 3.18763C7.11634 3.09957 7.30713 3.06044 7.53216 3.06044V1.96953C7.12123 1.96953 6.74944 2.05759 6.42657 2.24348C5.05193 3.03598 4.74374 5.50642 5.45307 8.60793C2.41027 9.54719 0.429016 11.0491 0.429016 12.6341C0.429016 14.2239 2.42005 15.7307 5.47264 16.665C4.7682 19.7763 5.08128 22.2517 6.46082 23.0442C6.7788 23.2301 7.15059 23.3181 7.56151 23.3181C8.9068 23.3181 10.6679 22.3593 12.4486 20.696C14.2292 22.3495 15.9904 23.2985 17.3356 23.2985C17.7466 23.2985 18.1184 23.2105 18.4412 23.0246C19.8159 22.2321 20.1241 19.7617 19.4147 16.6601C22.4478 15.7258 24.429 14.2191 24.429 12.6341ZM18.0597 9.37108C17.8787 10.0021 17.6536 10.6528 17.3992 11.3034C17.1987 10.912 16.9883 10.5207 16.7584 10.1293C16.5334 9.73798 16.2937 9.3564 16.054 8.98461C16.7486 9.08734 17.4188 9.21454 18.0597 9.37108ZM15.8191 14.5811C15.4376 15.2415 15.0462 15.8676 14.6402 16.4498C13.9113 16.5134 13.1726 16.5476 12.429 16.5476C11.6903 16.5476 10.9516 16.5134 10.2276 16.4547C9.8216 15.8725 9.42535 15.2513 9.04378 14.5957C8.67199 13.9549 8.33444 13.3043 8.02625 12.6487C8.32955 11.9932 8.67199 11.3377 9.03889 10.6968C9.42046 10.0364 9.81182 9.41022 10.2178 8.82807C10.9467 8.76448 11.6854 8.73023 12.429 8.73023C13.1677 8.73023 13.9064 8.76448 14.6304 8.82318C15.0364 9.40532 15.4327 10.0266 15.8142 10.6821C16.186 11.323 16.5236 11.9736 16.8318 12.6292C16.5236 13.2847 16.186 13.9402 15.8191 14.5811ZM17.3992 13.9451C17.6634 14.6006 17.8884 15.2561 18.0743 15.8921C17.4335 16.0486 16.7584 16.1807 16.0588 16.2835C16.2985 15.9068 16.5383 15.5203 16.7633 15.1241C16.9883 14.7327 17.1987 14.3365 17.3992 13.9451ZM12.4388 19.1648C11.9838 18.6952 11.5289 18.1718 11.0788 17.5994C11.5191 17.619 11.9692 17.6336 12.4241 17.6336C12.884 17.6336 13.3389 17.6239 13.7841 17.5994C13.3438 18.1718 12.8888 18.6952 12.4388 19.1648ZM8.79918 16.2835C8.10452 16.1807 7.43432 16.0535 6.79347 15.897C6.97447 15.2659 7.1995 14.6153 7.45389 13.9647C7.65446 14.356 7.86481 14.7474 8.09474 15.1387C8.32466 15.5301 8.55947 15.9117 8.79918 16.2835ZM12.4143 6.10324C12.8693 6.57287 13.3242 7.09631 13.7743 7.66867C13.334 7.64911 12.884 7.63443 12.429 7.63443C11.9692 7.63443 11.5142 7.64421 11.069 7.66867C11.5093 7.09631 11.9643 6.57287 12.4143 6.10324ZM8.79429 8.98461C8.55458 9.36129 8.31487 9.74776 8.08984 10.144C7.86481 10.5354 7.65446 10.9267 7.45389 11.3181C7.18972 10.6626 6.96469 10.007 6.7788 9.37108C7.41964 9.21943 8.09474 9.08734 8.79429 8.98461ZM4.36706 15.1094C2.6353 14.3707 1.51504 13.4021 1.51504 12.6341C1.51504 11.866 2.6353 10.8925 4.36706 10.1587C4.78777 9.97768 5.24761 9.81625 5.72213 9.6646C6.00097 10.6234 6.36787 11.6214 6.82282 12.6438C6.37276 13.6614 6.01076 14.6544 5.73681 15.6084C5.2525 15.4567 4.79266 15.2904 4.36706 15.1094ZM6.99893 22.1C6.33363 21.7184 6.045 20.2655 6.27003 18.3968C6.32384 17.9369 6.4119 17.4526 6.51952 16.9586C7.47835 17.1934 8.52523 17.3744 9.62592 17.4918C10.2863 18.3968 10.9712 19.2186 11.661 19.9378C10.0662 21.42 8.56926 22.2321 7.55173 22.2321C7.33159 22.2272 7.14569 22.1832 6.99893 22.1ZM18.6027 18.3723C18.8326 20.2411 18.5489 21.694 17.8884 22.0804C17.7417 22.1685 17.5509 22.2076 17.3259 22.2076C16.3132 22.2076 14.8114 21.4005 13.2166 19.928C13.9015 19.2089 14.5864 18.3919 15.237 17.4869C16.3426 17.3695 17.3895 17.1885 18.3483 16.9488C18.4608 17.4429 18.5489 17.9174 18.6027 18.3723ZM20.4861 15.1094C20.0654 15.2904 19.6055 15.4518 19.131 15.6035C18.8522 14.6447 18.4853 13.6467 18.0303 12.6243C18.4804 11.6067 18.8424 10.6136 19.1163 9.65971C19.6006 9.81136 20.0605 9.97768 20.491 10.1587C22.2227 10.8974 23.343 11.866 23.343 12.6341C23.3381 13.4021 22.2178 14.3756 20.4861 15.1094Z" fill="white"/>
<path d="M12.4241 14.8697C13.6588 14.8697 14.6597 13.8688 14.6597 12.6341C14.6597 11.3993 13.6588 10.3984 12.4241 10.3984C11.1894 10.3984 10.1885 11.3993 10.1885 12.6341C10.1885 13.8688 11.1894 14.8697 12.4241 14.8697Z" fill="white"/>
</g>
</g>
<defs>
<clipPath id="clip0_175_23">
<rect width="24" height="24" fill="white" transform="translate(0.429016 0.945068)"/>
</clipPath>
</defs>
</svg>
