<svg width="179" height="179" viewBox="0 0 179 179" fill="none" xmlns="http://www.w3.org/2000/svg">
<g clip-path="url(#clip0_169_4)">
<path d="M173.033 173.033V179H179V173.033H173.033ZM173.033 5.96667H179V0H173.033V5.96667ZM101.433 5.96667V0H98.9618L97.2143 1.7476L101.433 5.96667ZM5.96667 101.433L1.7476 97.2143L0 98.9618V101.433H5.96667ZM5.96667 173.033H0V179H5.96667V173.033ZM53.7 125.3L51.0316 130.637L51.2535 130.748L51.484 130.839L53.7 125.3ZM53.7 53.7V47.7333C50.4047 47.7333 47.7333 50.4047 47.7333 53.7H53.7ZM125.3 53.7L130.839 51.484L130.748 51.2535L130.637 51.0316L125.3 53.7ZM179 173.033V5.96667H167.067V173.033H179ZM173.033 0H101.433V11.9333H173.033V0ZM97.2143 1.7476L1.7476 97.2143L10.1857 105.652L105.652 10.1857L97.2143 1.7476ZM0 101.433V173.033H11.9333V101.433H0ZM5.96667 179H173.033V167.067H5.96667V179ZM168.814 1.7476L1.7476 168.814L10.1857 177.253L177.253 10.1857L168.814 1.7476ZM59.6667 125.3V53.7H47.7333V125.3H59.6667ZM53.7 59.6667H125.3V47.7333H53.7V59.6667ZM51.484 130.839L170.817 178.573L175.249 167.494L55.916 119.761L51.484 130.839ZM119.761 55.916L167.494 175.249L178.573 170.817L130.839 51.484L119.761 55.916ZM96.0966 8.63504L119.963 56.3684L130.637 51.0316L106.77 3.29829L96.0966 8.63504ZM3.29829 106.77L51.0316 130.637L56.3684 119.963L8.63504 96.0966L3.29829 106.77Z" fill="white"/>
</g>
<defs>
<clipPath id="clip0_169_4">
<rect width="179" height="179" fill="white"/>
</clipPath>
</defs>
</svg>
