<svg width="25" height="25" viewBox="0 0 25 25" fill="none" xmlns="http://www.w3.org/2000/svg">
<path d="M8.55572 7.1642C9.60687 6.32328 10.9279 5.94507 12.4304 5.94507C13.839 5.94507 14.9153 6.27599 15.7883 6.7787C16.5273 7.20429 17.1417 7.78633 17.7362 8.38999C18.382 9.04569 18.7324 9.36491 19.1727 9.47486C19.646 9.59318 20.046 9.55756 20.4115 9.40092C20.7911 9.23824 21.2035 8.91425 21.6304 8.34507L23.4005 9.18761C23.0295 10.6718 22.3531 11.8876 21.3051 12.726C20.2539 13.5669 18.9328 13.9451 17.4304 13.9451C16.0221 13.9451 14.946 13.6141 14.0731 13.1115C13.2393 12.6313 12.6302 12.0131 12.1522 11.5281C11.4901 10.8563 11.1346 10.5268 10.6881 10.4153C10.2148 10.297 9.81482 10.3326 9.44933 10.4892C9.06973 10.6519 8.6573 10.9759 8.23041 11.5451L6.46027 10.7025C6.83132 9.21835 7.50771 8.00261 8.55572 7.1642ZM12.4304 7.94507C11.6018 7.94507 10.9347 8.09116 10.397 8.35288C11.7171 8.43553 12.5782 9.24806 13.4537 10.0742C13.9579 10.55 14.4669 11.0303 15.0712 11.3783C15.6302 11.7002 16.3603 11.9451 17.4304 11.9451C18.2589 11.9451 18.926 11.799 19.4637 11.5373C18.1437 11.4546 17.2828 10.6421 16.4076 9.81608C15.9034 9.34022 15.3945 8.85985 14.7902 8.51186C14.2312 8.18998 13.5009 7.94507 12.4304 7.94507ZM3.55572 13.1642C4.60687 12.3233 5.92796 11.9451 7.43041 11.9451C8.83903 11.9451 9.91536 12.276 10.7883 12.7787C11.5273 13.2043 12.1417 13.7864 12.7362 14.39C13.382 15.0457 13.7324 15.3649 14.1727 15.4749C14.646 15.5932 15.046 15.5576 15.4115 15.401C15.7911 15.2383 16.2035 14.9143 16.6304 14.3451L18.4005 15.1876C18.0295 16.6718 17.3531 17.8876 16.3051 18.726C15.2539 19.5669 13.9328 19.9451 12.4304 19.9451C11.0221 19.9451 9.94603 19.6141 9.07314 19.1115C8.23935 18.6313 7.63017 18.0131 7.15221 17.5281C6.49011 16.8563 6.13459 16.5268 5.68813 16.4153C5.21485 16.297 4.81482 16.3326 4.44933 16.4892C4.06973 16.6519 3.6573 16.9759 3.23041 17.5451L1.46027 16.7026C1.83132 15.2184 2.50771 14.0026 3.55572 13.1642ZM7.43038 13.9451C6.60186 13.9451 5.93473 14.0912 5.39704 14.3529C6.71711 14.4356 7.5782 15.2481 8.45368 16.0742C8.95792 16.55 9.46695 17.0303 10.0712 17.3783C10.6302 17.7002 11.3603 17.9451 12.4304 17.9451C13.2589 17.9451 13.926 17.799 14.4637 17.5373C13.1437 17.4546 12.2828 16.6422 11.4076 15.8161C10.9034 15.3403 10.3945 14.8599 9.79019 14.5119C9.23127 14.19 8.50092 13.9451 7.43038 13.9451Z" fill="white"/>
</svg>
