<svg width="24" height="24" viewBox="0 0 24 24" fill="none" xmlns="http://www.w3.org/2000/svg">
<g clip-path="url(#clip0_169_6)">
<mask id="mask0_169_6" style="mask-type:luminance" maskUnits="userSpaceOnUse" x="0" y="0" width="24" height="24">
<path d="M24 0H0V24H24V0Z" fill="white"/>
</mask>
<g mask="url(#mask0_169_6)">
<path d="M0.228341 8.36909C0.228341 8.36909 -0.356212 7.94318 0.345251 7.37447L1.97956 5.8973C1.97956 5.8973 2.44721 5.39998 2.94164 5.83328L18.0231 17.3749V22.9093C18.0231 22.9093 18.0158 23.7784 16.9124 23.6824L0.228341 8.36909Z" fill="white"/>
<path d="M4.11553 11.9368L0.228251 15.509C0.228251 15.509 -0.171194 15.8094 0.228251 16.3461L2.03306 18.0054C2.03306 18.0054 2.46173 18.4707 3.095 17.9414L7.21609 14.7828L4.11553 11.9368Z" fill="white"/>
<path d="M10.94 11.9661L18.0691 6.46359L18.0228 0.95862C18.0228 0.95862 17.7183 -0.242823 16.7027 0.382518L7.21588 9.11022L10.94 11.9661Z" fill="white"/>
<path d="M16.9121 23.69C17.3261 24.1183 17.8279 23.978 17.8279 23.978L23.3838 21.2108C24.0951 20.7208 23.9952 20.1127 23.9952 20.1127V3.58803C23.9952 2.86175 23.2596 2.61063 23.2596 2.61063L18.4441 0.264377C17.3919 -0.392968 16.7027 0.382548 16.7027 0.382548C16.7027 0.382548 17.5892 -0.262484 18.0228 0.95865V22.8086C18.0228 22.9588 17.9911 23.1065 17.9278 23.2394C17.8011 23.4979 17.5259 23.7392 16.8658 23.6383L16.9121 23.69Z" fill="white"/>
</g>
</g>
<defs>
<clipPath id="clip0_169_6">
<rect width="24" height="24" fill="white"/>
</clipPath>
</defs>
</svg>
